<svg xmlns="http://www.w3.org/2000/svg" xmlns:xlink="http://www.w3.org/1999/xlink" width="106" height="106" viewBox="0 0 106 106"><defs><path id="xbcra" d="M718 4596c19.33 0 35 15.67 35 35s-15.67 35-35 35-35-15.67-35-35 15.67-35 35-35z"/><path id="xbcrb" d="M718 4578c29.271 0 53 23.729 53 53s-23.729 53-53 53-53-23.729-53-53 23.729-53 53-53z"/><path id="xbcre" d="M718 4623a8 8 0 1 1 0 16 8 8 0 0 1 0-16z"/><mask id="xbcrd" width="2" height="2" x="-1" y="-1"><path fill="#fff" d="M683 4596h70v70h-70z"/><use xlink:href="#xbcra"/></mask><filter id="xbcrc" width="120" height="120" x="658" y="4571" filterUnits="userSpaceOnUse"><feOffset in="SourceGraphic" result="FeOffset1144Out"/><feGaussianBlur in="FeOffset1144Out" result="FeGaussianBlur1145Out" stdDeviation="6 6"/></filter></defs><g><g opacity=".9" transform="translate(-665 -4578)"><g opacity=".27"><use fill="#fff" xlink:href="#xbcrb"/></g><g opacity=".72"><g filter="url(#xbcrc)"><use fill="none" stroke-opacity=".25" stroke-width="0" mask="url(&quot;#xbcrd&quot;)" xlink:href="#xbcra"/><use fill="#b0b0b0" fill-opacity=".25" xlink:href="#xbcra"/></g><use fill="#fff" xlink:href="#xbcra"/></g><g opacity=".9"><use fill="#7e5aff" xlink:href="#xbcre"/></g></g></g></svg>